<svg version="1.2" xmlns="http://www.w3.org/2000/svg" viewBox="0 0 180 180" width="180" height="180">
	<style>
		.s0 { fill: #f6196d;stroke: #f6196d;stroke-width: 2 } 
	</style>
	<path id="   ▄▄▄▄███▄▄▄▄     ▄██▀▀▀███▀▀▀█" class="s0" aria-label="   ▄▄▄▄███▄▄▄▄   
 ▄██▀▀▀███▀▀▀██▄ 
 ███   ███   ███ 
 ███   ███   ███ 
 ███   ███   ███ 
 ███   ███   ███ 
 ███   ███   ███ 
  ▀█   ███   █▀  
                 "  d="m49.9 35.9h-8.8v-9h8.8zm9 0h-8.8v-8.9h8.8zm9 0h-8.8v-9h8.8zm9 0h-8.8v-9h8.8zm9 0h-8.8v-17.6h8.8zm8 0h-8.8v-17.7h8.8zm9 0h-8.8v-17.7h8.8zm9 0h-8.8v-9h8.8zm9 0h-8.8v-8.9h8.8zm8 0h-8.8v-9h8.8zm9 0h-8.8v-8.9h8.8zm-105 18h-8.8v-9h8.8zm9 0h-8.8v-17.7h8.8zm8 0h-8.8v-17.7h8.8zm9-8.7h-8.8v-8.9h8.8zm9 0h-8.8v-9h8.8zm9 0h-8.8v-9h8.8zm9 8.8h-8.8v-17.7h8.8zm8 0h-8.8v-17.7h8.8zm9 0h-8.8v-17.7h8.8zm9-8.7h-8.8v-9h8.8zm9 0h-8.8v-8.9h8.8zm8 0h-8.8v-9h8.8zm9 8.7h-8.8v-17.6h8.8zm9 0h-8.8v-17.7h8.8zm9 0h-8.8v-9h8.8zm-123 18h-8.8v-17.7h8.8zm9 0h-8.8v-17.6h8.8zm8 0h-8.8v-17.7h8.8zm36 0h-8.8v-17.7h8.8zm8 0h-8.8v-17.7h8.8zm9 0h-8.8v-17.6h8.8zm35 0h-8.8v-17.7h8.8zm9 0h-8.8v-17.7h8.8zm9 0h-8.8v-17.7h8.8zm-123 18h-8.8v-17.7h8.8zm9 0h-8.8v-17.6h8.8zm8 0h-8.8v-17.7h8.8zm36 0h-8.8v-17.7h8.8zm8 0h-8.8v-17.7h8.8zm9 0h-8.8v-17.6h8.8zm35 0h-8.8v-17.7h8.8zm9 0h-8.8v-17.7h8.8zm9 0h-8.8v-17.7h8.8zm-123 18h-8.8v-17.7h8.8zm9 0h-8.8v-17.6h8.8zm8 0h-8.8v-17.7h8.8zm36 0h-8.8v-17.7h8.8zm8 0h-8.8v-17.7h8.8zm9 0h-8.8v-17.6h8.8zm35 0h-8.8v-17.7h8.8zm9 0h-8.8v-17.7h8.8zm9 0h-8.8v-17.7h8.8zm-123 18h-8.8v-17.7h8.8zm9 0h-8.8v-17.6h8.8zm8 0h-8.8v-17.7h8.8zm36 0h-8.8v-17.7h8.8zm8 0h-8.8v-17.7h8.8zm9 0h-8.8v-17.6h8.8zm35 0h-8.8v-17.7h8.8zm9 0h-8.8v-17.7h8.8zm9 0h-8.8v-17.7h8.8zm-123 18h-8.8v-17.7h8.8zm9 0h-8.8v-17.6h8.8zm8 0h-8.8v-17.7h8.8zm36 0h-8.8v-17.7h8.8zm8 0h-8.8v-17.7h8.8zm9 0h-8.8v-17.6h8.8zm35 0h-8.8v-17.7h8.8zm9 0h-8.8v-17.7h8.8zm9 0h-8.8v-17.7h8.8zm-114 9.3h-8.8v-9h8.8zm8 8.8h-8.8v-17.7h8.8zm36 0h-8.8v-17.7h8.8zm8 0h-8.8v-17.7h8.8zm9 0h-8.8v-17.7h8.8zm35 0h-8.8v-17.6h8.8zm9-8.7h-8.8v-9h8.8z"/>
</svg>